<svg xmlns="http://www.w3.org/2000/svg" viewBox="0 0 50 50" fill="none">
  <defs>
    <linearGradient id="grad1" x1="0%" y1="0%" x2="0%" y2="100%">
      <stop offset="0%" style="stop-color:#4A5568"/>
      <stop offset="100%" style="stop-color:#2D3748"/>
    </linearGradient>
    <linearGradient id="grad2" x1="0%" y1="0%" x2="100%" y2="100%">
      <stop offset="0%" style="stop-color:#A0AEC0"/>
      <stop offset="100%" style="stop-color:#718096"/>
    </linearGradient>
    <linearGradient id="grad3" x1="0%" y1="100%" x2="100%" y2="0%">
      <stop offset="0%" style="stop-color:#2B4C7E"/>
      <stop offset="100%" style="stop-color:#567EBB"/>
    </linearGradient>
  </defs>
  
  <!-- Hexagonal B Icon -->
  <path d="M25 2 L45 14 L45 38 L25 50 L5 38 L5 14 Z" fill="url(#grad1)" opacity="0.9"/>
  <path d="M5 14 L5 38 L12 42 L12 18 Z" fill="url(#grad2)"/>
  <path d="M45 14 L45 38 L25 50 L25 44 L38 36 L38 18 Z" fill="url(#grad1)"/>
  <path d="M15 18 L15 40 L22 44 L22 22 L32 22 L32 28 L22 28 L22 34 L32 34 L32 38 L22 40 L35 32 L35 18 Z" fill="url(#grad3)"/>
</svg>
